<?xml version="1.0" encoding="utf-8"?>
<!-- Generator: Adobe Illustrator 26.0.2, SVG Export Plug-In . SVG Version: 6.00 Build 0)  -->
<svg version="1.1" id="Layer_1" xmlns="http://www.w3.org/2000/svg" xmlns:xlink="http://www.w3.org/1999/xlink" x="0px" y="0px"
	 viewBox="0 0 469.95 205.53" style="enable-background:new 0 0 469.95 205.53;" xml:space="preserve">
<style type="text/css">
	.st0{fill:#1E9AFE;}
	.st1{fill:#09C7FB;}
	.st2{fill:#FFFFFF;}
	.st3{fill:#1D1D1B;}
	.st4{fill:url(#SVGID_1_);}
	.st5{fill:url(#SVGID_00000158746373736161191890000000556564851788635008_);}
	.st6{fill:url(#SVGID_00000070816805172986741120000010803315339897562031_);}
	.st7{fill:url(#SVGID_00000124867656592171828150000004930620483077084089_);}
	.st8{fill:url(#SVGID_00000150104121099570476760000008406328523596347273_);}
	.st9{fill:url(#SVGID_00000124150594936785338080000003836968248194200734_);}
	.st10{fill:url(#SVGID_00000125579209729893960980000000021784576090950831_);}
	.st11{fill:url(#SVGID_00000178915783586312808740000014086935962561232789_);}
	.st12{fill:url(#SVGID_00000104688319568587168840000008272143046722258067_);}
	.st13{fill:url(#SVGID_00000115508313328146926980000007619655752077110455_);}
	.st14{fill:url(#SVGID_00000048493157396899934420000006576480599420098956_);}
</style>
<g>
	<g>
		<g>
			<path class="st0" d="M276.98,364.07l-0.04-0.12l-29.03-84.89l-0.15-0.44c-1.31-3.95-4.06-7.26-7.6-9.32
				c-2.52-1.46-5.41-2.31-8.53-2.31c-3.1,0-6.01,0.85-8.51,2.31c-3.25,1.89-5.81,4.83-7.24,8.32c-0.17,0.42-29.62,86.41-29.62,86.41
				v0.02c-0.35,1.12-0.54,2.33-0.54,3.58c0,2.83,0.98,5.43,2.6,7.49c2.23,2.79,5.62,4.58,9.47,4.58c3.83,0,7.24-1.79,9.45-4.58
				c0.89-1.12,1.58-2.39,2.02-3.77c0.02-0.06,0.04-0.1,0.06-0.17l4.06-11.88h36.46l4.06,11.9c0,0.02,0.02,0.04,0.02,0.08
				c0.46,1.39,1.17,2.71,2.06,3.83c2.21,2.79,5.62,4.58,9.45,4.58c3.85,0,7.26-1.79,9.47-4.58c1.62-2.06,2.6-4.66,2.6-7.49
				C277.5,366.4,277.32,365.2,276.98,364.07z M215.09,280.18 M221.65,335.19l9.97-29.2l9.97,29.2H221.65z"/>
		</g>
		<g>
			<path class="st0" d="M456.95,364.07l-0.04-0.12l-29.03-84.89l-0.15-0.44c-1.31-3.95-4.06-7.26-7.6-9.32
				c-2.52-1.46-5.41-2.31-8.53-2.31c-3.1,0-6.01,0.85-8.51,2.31c-3.25,1.89-5.81,4.83-7.24,8.32c-0.17,0.42-29.62,86.41-29.62,86.41
				v0.02c-0.35,1.12-0.54,2.33-0.54,3.58c0,2.83,0.98,5.43,2.6,7.49c2.23,2.79,5.62,4.58,9.47,4.58c3.83,0,7.24-1.79,9.45-4.58
				c0.89-1.12,1.58-2.39,2.02-3.77c0.02-0.06,0.04-0.1,0.06-0.17l4.06-11.88h36.46l4.06,11.9c0,0.02,0.02,0.04,0.02,0.08
				c0.46,1.39,1.17,2.71,2.06,3.83c2.21,2.79,5.62,4.58,9.45,4.58c3.85,0,7.26-1.79,9.47-4.58c1.62-2.06,2.6-4.66,2.6-7.49
				C457.47,366.4,457.28,365.2,456.95,364.07z M395.05,280.18 M401.61,335.19l9.97-29.2l9.97,29.2H401.61z"/>
		</g>
		<g>
			<path class="st0" d="M321.29,378.99c-22.53,0-40.86-18.33-40.86-40.86c0-7.84,6.36-14.2,14.2-14.2s14.2,6.36,14.2,14.2
				c0,6.87,5.59,12.47,12.47,12.47s12.47-5.59,12.47-12.47v-57.04c0-7.84,6.36-14.2,14.2-14.2c7.84,0,14.2,6.36,14.2,14.2v57.04
				C362.15,360.66,343.82,378.99,321.29,378.99z"/>
		</g>
	</g>
	<g>
		<path class="st0" d="M64.47,323.14l13.63-13.63v-25.8c0-11.27-9.14-20.41-20.41-20.41h0c-11.27,0-20.41,9.14-20.41,20.41v16.62
			c4.26,1.41,8.17,3.78,11.44,7.05L64.47,323.14z"/>
		<path class="st0" d="M43.82,385.09l-6.54-6.54v23.66c0,11.27,9.14,20.41,20.41,20.41h0c11.27,0,20.41-9.14,20.41-20.41v-11.93
			c-4.15,2.2-8.8,3.37-13.63,3.37C56.67,393.64,49.33,390.61,43.82,385.09z"/>
		<path class="st0" d="M152.88,276.03c4.47,4.47,7.16,10.05,8.12,15.86v-47.01c0-11.27-9.14-20.41-20.41-20.41
			c-11.27,0-20.41,9.14-20.41,20.41v25.22c3.74-1.7,7.82-2.62,12.05-2.62C140.03,267.47,147.37,270.51,152.88,276.03z"/>
		<path class="st0" d="M152.88,317.33l-32.7,32.7v34.12c0,11.27,9.14,20.41,20.41,20.41c11.27,0,20.41-9.14,20.41-20.41v-82.68
			C160.04,307.28,157.35,312.85,152.88,317.33z"/>
		<path class="st0" d="M143.25,285.66L143.25,285.66c-3.04-3.04-7.03-4.56-11.02-4.56c-3.99,0-7.98,1.52-11.02,4.56l-1.03,1.03
			l-42.09,42.09L64.47,342.4l-25.38-25.38c-0.56-0.56-1.19-1.02-1.81-1.48c-2.74-2.02-5.96-3.09-9.21-3.09
			c-3.99,0-7.98,1.52-11.02,4.56c-6.09,6.09-6.09,15.95,0,22.04l20.23,20.23l5.16,5.16l11.02,11.02c3.04,3.04,7.03,4.56,11.02,4.56
			c3.99,0,7.98-1.52,11.02-4.56l2.61-2.61l42.09-42.09l23.07-23.07C149.33,301.61,149.33,291.74,143.25,285.66z"/>
	</g>
</g>
<g>
	<g>
		<g>
			<path class="st0" d="M276.98,143.29l-0.04-0.12l-29.03-84.89l-0.15-0.44c-1.31-3.95-4.06-7.26-7.6-9.32
				c-2.52-1.46-5.41-2.31-8.53-2.31c-3.1,0-6.01,0.85-8.51,2.31c-3.25,1.89-5.81,4.83-7.24,8.32c-0.17,0.42-29.62,86.41-29.62,86.41
				v0.02c-0.35,1.12-0.54,2.33-0.54,3.58c0,2.83,0.98,5.43,2.6,7.49c2.23,2.79,5.62,4.58,9.47,4.58c3.83,0,7.24-1.79,9.45-4.58
				c0.89-1.12,1.58-2.39,2.02-3.77c0.02-0.06,0.04-0.1,0.06-0.17l4.06-11.88h36.46l4.06,11.9c0,0.02,0.02,0.04,0.02,0.08
				c0.46,1.39,1.17,2.71,2.06,3.83c2.21,2.79,5.62,4.58,9.45,4.58c3.85,0,7.26-1.79,9.47-4.58c1.62-2.06,2.6-4.66,2.6-7.49
				C277.5,145.63,277.32,144.42,276.98,143.29z M215.09,59.4 M221.65,114.41l9.97-29.2l9.97,29.2H221.65z"/>
		</g>
		<g>
			<path class="st0" d="M456.95,143.29l-0.04-0.12l-29.03-84.89l-0.15-0.44c-1.31-3.95-4.06-7.26-7.6-9.32
				c-2.52-1.46-5.41-2.31-8.53-2.31c-3.1,0-6.01,0.85-8.51,2.31c-3.25,1.89-5.81,4.83-7.24,8.32c-0.17,0.42-29.62,86.41-29.62,86.41
				v0.02c-0.35,1.12-0.54,2.33-0.54,3.58c0,2.83,0.98,5.43,2.6,7.49c2.23,2.79,5.62,4.58,9.47,4.58c3.83,0,7.24-1.79,9.45-4.58
				c0.89-1.12,1.58-2.39,2.02-3.77c0.02-0.06,0.04-0.1,0.06-0.17l4.06-11.88h36.46l4.06,11.9c0,0.02,0.02,0.04,0.02,0.08
				c0.46,1.39,1.17,2.71,2.06,3.83c2.21,2.79,5.62,4.58,9.45,4.58c3.85,0,7.26-1.79,9.47-4.58c1.62-2.06,2.6-4.66,2.6-7.49
				C457.47,145.63,457.28,144.42,456.95,143.29z M395.05,59.4 M401.61,114.41l9.97-29.2l9.97,29.2H401.61z"/>
		</g>
		<g>
			<path class="st0" d="M321.29,158.21c-22.53,0-40.86-18.33-40.86-40.86c0-7.84,6.36-14.2,14.2-14.2s14.2,6.36,14.2,14.2
				c0,6.87,5.59,12.47,12.47,12.47s12.47-5.59,12.47-12.47V60.32c0-7.84,6.36-14.2,14.2-14.2c7.84,0,14.2,6.36,14.2,14.2v57.04
				C362.15,139.88,343.82,158.21,321.29,158.21z"/>
		</g>
	</g>
	<g>
		<path class="st0" d="M64.47,102.36l13.63-13.63v-25.8c0-11.27-9.14-20.41-20.41-20.41h0c-11.27,0-20.41,9.14-20.41,20.41v16.62
			c4.26,1.41,8.17,3.78,11.44,7.05L64.47,102.36z"/>
		<path class="st0" d="M43.82,164.31l-6.54-6.54v23.66c0,11.27,9.14,20.41,20.41,20.41h0c11.27,0,20.41-9.14,20.41-20.41V169.5
			c-4.15,2.2-8.8,3.37-13.63,3.37C56.67,172.86,49.33,169.83,43.82,164.31z"/>
		<path class="st0" d="M152.88,55.25c4.47,4.47,7.16,10.05,8.12,15.86V24.1c0-11.27-9.14-20.41-20.41-20.41
			c-11.27,0-20.41,9.14-20.41,20.41v25.22c3.74-1.7,7.82-2.62,12.05-2.62C140.03,46.69,147.37,49.73,152.88,55.25z"/>
		<path class="st0" d="M152.88,96.55l-32.7,32.7v34.12c0,11.27,9.14,20.41,20.41,20.41c11.27,0,20.41-9.14,20.41-20.41V80.69
			C160.04,86.5,157.35,92.07,152.88,96.55z"/>
		<g>
			<path class="st1" d="M143.25,64.88L143.25,64.88c-3.04-3.04-7.03-4.56-11.02-4.56c-3.99,0-7.98,1.52-11.02,4.56l-1.03,1.03
				L78.09,108l-13.63,13.63L39.08,96.24c-0.56-0.56-1.19-1.02-1.81-1.48c-2.74-2.02-5.96-3.09-9.21-3.09
				c-3.99,0-7.98,1.52-11.02,4.56c-6.09,6.09-6.09,15.95,0,22.04l20.23,20.23l5.16,5.16l11.02,11.02c3.04,3.04,7.03,4.56,11.02,4.56
				c3.99,0,7.98-1.52,11.02-4.56l2.61-2.61l42.09-42.09l23.07-23.07C149.33,80.83,149.33,70.96,143.25,64.88z"/>
		</g>
	</g>
</g>
<g>
	<g>
		<g>
			<path class="st2" d="M766.94,143.29l-0.04-0.12l-29.03-84.89l-0.15-0.44c-1.31-3.95-4.06-7.26-7.6-9.32
				c-2.52-1.46-5.41-2.31-8.53-2.31c-3.1,0-6.01,0.85-8.51,2.31c-3.25,1.89-5.81,4.83-7.24,8.32c-0.17,0.42-29.62,86.41-29.62,86.41
				v0.02c-0.35,1.12-0.54,2.33-0.54,3.58c0,2.83,0.98,5.43,2.6,7.49c2.23,2.79,5.62,4.58,9.47,4.58c3.83,0,7.24-1.79,9.45-4.58
				c0.89-1.12,1.58-2.39,2.02-3.77c0.02-0.06,0.04-0.1,0.06-0.17l4.06-11.88h36.46l4.06,11.9c0,0.02,0.02,0.04,0.02,0.08
				c0.46,1.39,1.17,2.71,2.06,3.83c2.21,2.79,5.62,4.58,9.45,4.58c3.85,0,7.26-1.79,9.47-4.58c1.62-2.06,2.6-4.66,2.6-7.49
				C767.46,145.63,767.27,144.42,766.94,143.29z M705.04,59.4 M711.6,114.41l9.97-29.2l9.97,29.2H711.6z"/>
		</g>
		<g>
			<path class="st2" d="M946.9,143.29l-0.04-0.12l-29.03-84.89l-0.15-0.44c-1.31-3.95-4.06-7.26-7.6-9.32
				c-2.52-1.46-5.41-2.31-8.53-2.31c-3.1,0-6.01,0.85-8.51,2.31c-3.25,1.89-5.81,4.83-7.24,8.32c-0.17,0.42-29.62,86.41-29.62,86.41
				v0.02c-0.35,1.12-0.54,2.33-0.54,3.58c0,2.83,0.98,5.43,2.6,7.49c2.23,2.79,5.62,4.58,9.47,4.58c3.83,0,7.24-1.79,9.45-4.58
				c0.89-1.12,1.58-2.39,2.02-3.77c0.02-0.06,0.04-0.1,0.06-0.17l4.06-11.88h36.46l4.06,11.9c0,0.02,0.02,0.04,0.02,0.08
				c0.46,1.39,1.17,2.71,2.06,3.83c2.21,2.79,5.62,4.58,9.45,4.58c3.85,0,7.26-1.79,9.47-4.58c1.62-2.06,2.6-4.66,2.6-7.49
				C947.42,145.63,947.23,144.42,946.9,143.29z M885.01,59.4 M891.56,114.41l9.97-29.2l9.97,29.2H891.56z"/>
		</g>
		<g>
			<path class="st2" d="M811.24,158.21c-22.53,0-40.86-18.33-40.86-40.86c0-7.84,6.36-14.2,14.2-14.2c7.84,0,14.2,6.36,14.2,14.2
				c0,6.87,5.59,12.47,12.47,12.47s12.47-5.59,12.47-12.47V60.32c0-7.84,6.36-14.2,14.2-14.2s14.2,6.36,14.2,14.2v57.04
				C852.1,139.88,833.77,158.21,811.24,158.21z"/>
		</g>
	</g>
	<g>
		<path class="st2" d="M554.42,102.36l13.63-13.63v-25.8c0-11.27-9.14-20.41-20.41-20.41h0c-11.27,0-20.41,9.14-20.41,20.41v16.62
			c4.26,1.41,8.17,3.78,11.44,7.05L554.42,102.36z"/>
		<path class="st2" d="M533.77,164.31l-6.54-6.54v23.66c0,11.27,9.14,20.41,20.41,20.41h0c11.27,0,20.41-9.14,20.41-20.41V169.5
			c-4.15,2.2-8.8,3.37-13.63,3.37C546.62,172.86,539.28,169.83,533.77,164.31z"/>
		<path class="st2" d="M642.83,55.25c4.47,4.47,7.16,10.05,8.12,15.86V24.1c0-11.27-9.14-20.41-20.41-20.41
			c-11.27,0-20.41,9.14-20.41,20.41v25.22c3.74-1.7,7.82-2.62,12.05-2.62C629.98,46.69,637.32,49.73,642.83,55.25z"/>
		<path class="st2" d="M642.83,96.55l-32.7,32.7v34.12c0,11.27,9.14,20.41,20.41,20.41c11.27,0,20.41-9.14,20.41-20.41V80.69
			C649.99,86.5,647.3,92.07,642.83,96.55z"/>
		<g>
			<path class="st2" d="M633.2,64.88L633.2,64.88c-3.04-3.04-7.03-4.56-11.02-4.56c-3.99,0-7.98,1.52-11.02,4.56l-1.03,1.03
				L568.05,108l-13.63,13.63l-25.38-25.38c-0.56-0.56-1.19-1.02-1.81-1.48c-2.74-2.02-5.96-3.09-9.21-3.09
				c-3.99,0-7.98,1.52-11.02,4.56c-6.09,6.09-6.09,15.95,0,22.04l20.23,20.23l5.16,5.16l11.02,11.02c3.04,3.04,7.03,4.56,11.02,4.56
				c3.99,0,7.98-1.52,11.02-4.56l2.61-2.61l42.09-42.09l23.07-23.07C639.29,80.83,639.29,70.96,633.2,64.88z"/>
		</g>
	</g>
</g>
<g>
	<g>
		<g>
			<path class="st3" d="M766.94-76.19l-0.04-0.12l-29.03-84.89l-0.15-0.44c-1.31-3.95-4.06-7.26-7.6-9.32
				c-2.52-1.46-5.41-2.31-8.53-2.31c-3.1,0-6.01,0.85-8.51,2.31c-3.25,1.89-5.81,4.83-7.24,8.32c-0.17,0.42-29.62,86.41-29.62,86.41
				v0.02c-0.35,1.12-0.54,2.33-0.54,3.58c0,2.83,0.98,5.43,2.6,7.49c2.23,2.79,5.62,4.58,9.47,4.58c3.83,0,7.24-1.79,9.45-4.58
				c0.89-1.12,1.58-2.39,2.02-3.77c0.02-0.06,0.04-0.1,0.06-0.17l4.06-11.88h36.46l4.06,11.9c0,0.02,0.02,0.04,0.02,0.08
				c0.46,1.39,1.17,2.71,2.06,3.83c2.21,2.79,5.62,4.58,9.45,4.58c3.85,0,7.26-1.79,9.47-4.58c1.62-2.06,2.6-4.66,2.6-7.49
				C767.46-73.86,767.27-75.06,766.94-76.19z M705.04-160.08 M711.6-105.07l9.97-29.2l9.97,29.2H711.6z"/>
		</g>
		<g>
			<path class="st3" d="M946.9-76.19l-0.04-0.12l-29.03-84.89l-0.15-0.44c-1.31-3.95-4.06-7.26-7.6-9.32
				c-2.52-1.46-5.41-2.31-8.53-2.31c-3.1,0-6.01,0.85-8.51,2.31c-3.25,1.89-5.81,4.83-7.24,8.32c-0.17,0.42-29.62,86.41-29.62,86.41
				v0.02c-0.35,1.12-0.54,2.33-0.54,3.58c0,2.83,0.98,5.43,2.6,7.49c2.23,2.79,5.62,4.58,9.47,4.58c3.83,0,7.24-1.79,9.45-4.58
				c0.89-1.12,1.58-2.39,2.02-3.77c0.02-0.06,0.04-0.1,0.06-0.17l4.06-11.88h36.46l4.06,11.9c0,0.02,0.02,0.04,0.02,0.08
				c0.46,1.39,1.17,2.71,2.06,3.83c2.21,2.79,5.62,4.58,9.45,4.58c3.85,0,7.26-1.79,9.47-4.58c1.62-2.06,2.6-4.66,2.6-7.49
				C947.42-73.86,947.23-75.06,946.9-76.19z M885.01-160.08 M891.56-105.07l9.97-29.2l9.97,29.2H891.56z"/>
		</g>
		<g>
			<path class="st3" d="M811.24-61.27c-22.53,0-40.86-18.33-40.86-40.86c0-7.84,6.36-14.2,14.2-14.2c7.84,0,14.2,6.36,14.2,14.2
				c0,6.87,5.59,12.47,12.47,12.47s12.47-5.59,12.47-12.47v-57.04c0-7.84,6.36-14.2,14.2-14.2s14.2,6.36,14.2,14.2v57.04
				C852.1-79.6,833.77-61.27,811.24-61.27z"/>
		</g>
	</g>
	<g>
		<path class="st3" d="M554.42-117.12l13.63-13.63v-25.8c0-11.27-9.14-20.41-20.41-20.41h0c-11.27,0-20.41,9.14-20.41,20.41v16.62
			c4.26,1.41,8.17,3.78,11.44,7.05L554.42-117.12z"/>
		<path class="st3" d="M533.77-55.17l-6.54-6.54v23.66c0,11.27,9.14,20.41,20.41,20.41h0c11.27,0,20.41-9.14,20.41-20.41v-11.93
			c-4.15,2.2-8.8,3.37-13.63,3.37C546.62-46.62,539.28-49.65,533.77-55.17z"/>
		<path class="st3" d="M642.83-164.23c4.47,4.47,7.16,10.05,8.12,15.86v-47.01c0-11.27-9.14-20.41-20.41-20.41
			c-11.27,0-20.41,9.14-20.41,20.41v25.22c3.74-1.7,7.82-2.62,12.05-2.62C629.98-172.79,637.32-169.75,642.83-164.23z"/>
		<path class="st3" d="M642.83-122.93l-32.7,32.7v34.12c0,11.27,9.14,20.41,20.41,20.41c11.27,0,20.41-9.14,20.41-20.41v-82.68
			C649.99-132.98,647.3-127.41,642.83-122.93z"/>
		<g>
			<path class="st3" d="M633.2-154.6L633.2-154.6c-3.04-3.04-7.03-4.56-11.02-4.56c-3.99,0-7.98,1.52-11.02,4.56l-1.03,1.03
				l-42.09,42.09l-13.63,13.63l-25.38-25.38c-0.56-0.56-1.19-1.02-1.81-1.48c-2.74-2.02-5.96-3.09-9.21-3.09
				c-3.99,0-7.98,1.52-11.02,4.56c-6.09,6.09-6.09,15.95,0,22.04l20.23,20.23l5.16,5.16L543.4-64.8c3.04,3.04,7.03,4.56,11.02,4.56
				c3.99,0,7.98-1.52,11.02-4.56l2.61-2.61l42.09-42.09l23.07-23.07C639.29-138.65,639.29-148.52,633.2-154.6z"/>
		</g>
	</g>
</g>
<g>
	<g>
		<path class="st2" d="M892.97,554.42l13.64-13.64v-25.81c0-11.28-9.14-20.42-20.42-20.42h0c-11.28,0-20.42,9.14-20.42,20.42v16.63
			c4.26,1.41,8.18,3.79,11.45,7.06L892.97,554.42z"/>
		<path class="st2" d="M872.3,616.41l-6.55-6.55v23.68c0,11.28,9.14,20.42,20.42,20.42h0c11.28,0,20.42-9.14,20.42-20.42V621.6
			c-4.15,2.2-8.8,3.37-13.64,3.37C885.16,624.97,877.82,621.93,872.3,616.41z"/>
		<path class="st2" d="M981.44,507.27c4.47,4.48,7.17,10.06,8.13,15.87V476.1c0-11.28-9.14-20.42-20.42-20.42
			c-11.28,0-20.42,9.14-20.42,20.42v25.23c3.74-1.7,7.83-2.62,12.06-2.62C968.58,498.71,975.92,501.75,981.44,507.27z"/>
		<path class="st2" d="M981.44,548.6l-32.72,32.72v34.14c0,11.28,9.14,20.42,20.42,20.42c11.28,0,20.42-9.14,20.42-20.42v-82.74
			C988.6,538.54,985.91,544.13,981.44,548.6z"/>
		<g>
			<path class="st2" d="M971.8,516.91L971.8,516.91c-3.04-3.04-7.03-4.57-11.03-4.57c-3.99,0-7.98,1.52-11.03,4.57l-1.03,1.03
				l-42.11,42.11l-13.64,13.64l-25.4-25.4c-0.56-0.56-1.19-1.02-1.81-1.48c-2.74-2.02-5.96-3.09-9.21-3.09
				c-3.99,0-7.98,1.52-11.03,4.57c-6.09,6.09-6.09,15.96,0,22.05l20.24,20.24l5.16,5.16l11.03,11.03c3.04,3.04,7.04,4.57,11.03,4.57
				c3.99,0,7.98-1.52,11.03-4.57l2.61-2.61l42.11-42.11l23.08-23.08C977.89,532.87,977.89,523,971.8,516.91z"/>
		</g>
	</g>
</g>
<g>
	<g>
		<path class="st3" d="M685.51,554.42l13.64-13.64v-25.81c0-11.28-9.14-20.42-20.42-20.42h0c-11.28,0-20.42,9.14-20.42,20.42v16.63
			c4.26,1.41,8.18,3.79,11.45,7.06L685.51,554.42z"/>
		<path class="st3" d="M664.85,616.41l-6.55-6.55v23.68c0,11.28,9.14,20.42,20.42,20.42h0c11.28,0,20.42-9.14,20.42-20.42V621.6
			c-4.15,2.2-8.8,3.37-13.64,3.37C677.7,624.97,670.37,621.93,664.85,616.41z"/>
		<path class="st3" d="M773.98,507.27c4.47,4.48,7.17,10.06,8.13,15.87V476.1c0-11.28-9.14-20.42-20.42-20.42
			c-11.28,0-20.42,9.14-20.42,20.42v25.23c3.74-1.7,7.83-2.62,12.06-2.62C761.12,498.71,768.46,501.75,773.98,507.27z"/>
		<path class="st3" d="M773.98,548.6l-32.72,32.72v34.14c0,11.28,9.14,20.42,20.42,20.42c11.28,0,20.42-9.14,20.42-20.42v-82.74
			C781.15,538.54,778.46,544.13,773.98,548.6z"/>
		<g>
			<path class="st3" d="M764.34,516.91L764.34,516.91c-3.04-3.04-7.03-4.57-11.03-4.57c-3.99,0-7.98,1.52-11.03,4.57l-1.03,1.03
				l-42.11,42.11l-13.64,13.64l-25.4-25.4c-0.56-0.56-1.19-1.02-1.81-1.48c-2.74-2.02-5.96-3.09-9.21-3.09
				c-3.99,0-7.98,1.52-11.03,4.57c-6.09,6.09-6.09,15.96,0,22.05l20.24,20.24l5.16,5.16l11.03,11.03c3.04,3.04,7.04,4.57,11.03,4.57
				c3.99,0,7.98-1.52,11.03-4.57l2.61-2.61l42.11-42.11l23.08-23.08C770.43,532.87,770.43,523,764.34,516.91z"/>
		</g>
	</g>
</g>
<g>
	<g>
		<path class="st0" d="M475.61,554.42l13.64-13.64v-25.81c0-11.28-9.14-20.42-20.42-20.42h0c-11.28,0-20.42,9.14-20.42,20.42v16.63
			c4.26,1.41,8.18,3.79,11.45,7.06L475.61,554.42z"/>
		<path class="st0" d="M454.95,616.41l-6.55-6.55v23.68c0,11.28,9.14,20.42,20.42,20.42h0c11.28,0,20.42-9.14,20.42-20.42V621.6
			c-4.15,2.2-8.8,3.37-13.64,3.37C467.81,624.97,460.47,621.93,454.95,616.41z"/>
		<path class="st0" d="M564.08,507.27c4.47,4.48,7.17,10.06,8.13,15.87V476.1c0-11.28-9.14-20.42-20.42-20.42
			c-11.28,0-20.42,9.14-20.42,20.42v25.23c3.74-1.7,7.83-2.62,12.06-2.62C551.22,498.71,558.56,501.75,564.08,507.27z"/>
		<path class="st0" d="M564.08,548.6l-32.72,32.72v34.14c0,11.28,9.14,20.42,20.42,20.42c11.28,0,20.42-9.14,20.42-20.42v-82.74
			C571.25,538.54,568.56,544.13,564.08,548.6z"/>
		<path class="st0" d="M554.44,516.91L554.44,516.91c-3.04-3.04-7.03-4.57-11.03-4.57c-3.99,0-7.98,1.52-11.03,4.57l-1.03,1.03
			l-42.11,42.11l-13.64,13.64l-25.4-25.4c-0.56-0.56-1.19-1.02-1.81-1.48c-2.74-2.02-5.96-3.09-9.21-3.09
			c-3.99,0-7.98,1.52-11.03,4.57c-6.09,6.09-6.09,15.96,0,22.05l20.24,20.24l5.16,5.16l11.03,11.03c3.04,3.04,7.04,4.57,11.03,4.57
			c3.99,0,7.98-1.52,11.03-4.57l2.61-2.61l42.11-42.11l23.08-23.08C560.53,532.87,560.53,523,554.44,516.91z"/>
	</g>
</g>
<g>
	<g>
		<path class="st0" d="M269.37,554.42l13.64-13.64v-25.81c0-11.28-9.14-20.42-20.42-20.42h0c-11.28,0-20.42,9.14-20.42,20.42v16.63
			c4.26,1.41,8.18,3.79,11.45,7.06L269.37,554.42z"/>
		<path class="st0" d="M248.71,616.41l-6.55-6.55v23.68c0,11.28,9.14,20.42,20.42,20.42h0c11.28,0,20.42-9.14,20.42-20.42V621.6
			c-4.15,2.2-8.8,3.37-13.64,3.37C261.57,624.97,254.23,621.93,248.71,616.41z"/>
		<path class="st0" d="M357.85,507.27c4.47,4.48,7.17,10.06,8.13,15.87V476.1c0-11.28-9.14-20.42-20.42-20.42
			c-11.28,0-20.42,9.14-20.42,20.42v25.23c3.74-1.7,7.83-2.62,12.06-2.62C344.99,498.71,352.33,501.75,357.85,507.27z"/>
		<path class="st0" d="M357.85,548.6l-32.72,32.72v34.14c0,11.28,9.14,20.42,20.42,20.42c11.28,0,20.42-9.14,20.42-20.42v-82.74
			C365.01,538.54,362.32,544.13,357.85,548.6z"/>
		<g>
			<path class="st1" d="M348.21,516.91L348.21,516.91c-3.04-3.04-7.03-4.57-11.03-4.57c-3.99,0-7.98,1.52-11.03,4.57l-1.03,1.03
				l-42.11,42.11l-13.64,13.64l-25.4-25.4c-0.56-0.56-1.19-1.02-1.81-1.48c-2.74-2.02-5.96-3.09-9.21-3.09
				c-3.99,0-7.98,1.52-11.03,4.57c-6.09,6.09-6.09,15.96,0,22.05l20.24,20.24l5.16,5.16l11.03,11.03c3.04,3.04,7.04,4.57,11.03,4.57
				c3.99,0,7.98-1.52,11.03-4.57l2.61-2.61l42.11-42.11l23.08-23.08C354.3,532.87,354.3,523,348.21,516.91z"/>
		</g>
	</g>
</g>
<g>
	<g>
		<path class="st0" d="M64.36,554.42l13.64-13.64v-25.81c0-11.28-9.14-20.42-20.42-20.42h0c-11.28,0-20.42,9.14-20.42,20.42v16.63
			c4.26,1.41,8.18,3.79,11.45,7.06L64.36,554.42z"/>
		<linearGradient id="SVGID_1_" gradientUnits="userSpaceOnUse" x1="59.2278" y1="544.7089" x2="57.3936" y2="629.9996">
			<stop  offset="0" style="stop-color:#93FB9D"/>
			<stop  offset="1" style="stop-color:#09C7FB"/>
		</linearGradient>
		<path class="st4" d="M43.69,616.41l-6.55-6.55v23.68c0,11.28,9.14,20.42,20.42,20.42h0c11.28,0,20.42-9.14,20.42-20.42V621.6
			c-4.15,2.2-8.8,3.37-13.64,3.37C56.55,624.97,49.21,621.93,43.69,616.41z"/>
		
			<linearGradient id="SVGID_00000086689607056694865140000018341027523549190785_" gradientUnits="userSpaceOnUse" x1="140.5295" y1="457.4343" x2="140.5295" y2="634.166">
			<stop  offset="0" style="stop-color:#1E9AFE"/>
			<stop  offset="1" style="stop-color:#60DFCD"/>
		</linearGradient>
		<path style="fill:url(#SVGID_00000086689607056694865140000018341027523549190785_);" d="M152.83,507.27
			c4.47,4.48,7.17,10.06,8.13,15.87V476.1c0-11.28-9.14-20.42-20.42-20.42c-11.28,0-20.42,9.14-20.42,20.42v25.23
			c3.74-1.7,7.83-2.62,12.06-2.62C139.97,498.71,147.31,501.75,152.83,507.27z"/>
		
			<linearGradient id="SVGID_00000161623658013337681820000012081448661362170549_" gradientUnits="userSpaceOnUse" x1="140.5295" y1="457.4343" x2="140.5295" y2="634.166">
			<stop  offset="0" style="stop-color:#1E9AFE"/>
			<stop  offset="1" style="stop-color:#60DFCD"/>
		</linearGradient>
		<path style="fill:url(#SVGID_00000161623658013337681820000012081448661362170549_);" d="M152.83,548.6l-32.72,32.72v34.14
			c0,11.28,9.14,20.42,20.42,20.42c11.28,0,20.42-9.14,20.42-20.42v-82.74C159.99,538.54,157.3,544.13,152.83,548.6z"/>
		<g>
			
				<linearGradient id="SVGID_00000011735477465726239050000014614468388700071055_" gradientUnits="userSpaceOnUse" x1="142.7988" y1="554.5693" x2="32.2713" y2="572.6146">
				<stop  offset="0" style="stop-color:#93FB9D"/>
				<stop  offset="1" style="stop-color:#09C7FB"/>
			</linearGradient>
			<path style="fill:url(#SVGID_00000011735477465726239050000014614468388700071055_);" d="M143.19,516.91L143.19,516.91
				c-3.04-3.04-7.03-4.57-11.03-4.57c-3.99,0-7.98,1.52-11.03,4.57l-1.03,1.03l-42.11,42.11l-13.64,13.64l-25.4-25.4
				c-0.56-0.56-1.19-1.02-1.81-1.48c-2.74-2.02-5.96-3.09-9.21-3.09c-3.99,0-7.98,1.52-11.03,4.57c-6.09,6.09-6.09,15.96,0,22.05
				l20.24,20.24l5.16,5.16l11.03,11.03c3.04,3.04,7.04,4.57,11.03,4.57c3.99,0,7.98-1.52,11.03-4.57l2.61-2.61l42.11-42.11
				l23.08-23.08C149.28,532.87,149.28,523,143.19,516.91z"/>
		</g>
	</g>
</g>
<g>
	<g>
		<g>
			
				<linearGradient id="SVGID_00000142177788198291765350000009469210113882744201_" gradientUnits="userSpaceOnUse" x1="504.3589" y1="-154.4939" x2="217.8681" y2="-110.6777">
				<stop  offset="0" style="stop-color:#93FB9D"/>
				<stop  offset="1" style="stop-color:#09C7FB"/>
			</linearGradient>
			<path style="fill:url(#SVGID_00000142177788198291765350000009469210113882744201_);" d="M277.01-74.59l-0.04-0.12l-29.05-84.95
				l-0.15-0.44c-1.31-3.96-4.06-7.27-7.6-9.33c-2.52-1.46-5.41-2.31-8.54-2.31c-3.1,0-6.02,0.85-8.52,2.31
				c-3.25,1.9-5.81,4.83-7.25,8.33c-0.17,0.42-29.63,86.47-29.63,86.47v0.02c-0.35,1.12-0.54,2.33-0.54,3.58
				c0,2.83,0.98,5.44,2.6,7.5c2.23,2.79,5.62,4.58,9.48,4.58c3.83,0,7.25-1.79,9.45-4.58c0.9-1.12,1.58-2.39,2.02-3.77
				c0.02-0.06,0.04-0.1,0.06-0.17l4.06-11.89h36.49l4.06,11.91c0,0.02,0.02,0.04,0.02,0.08c0.46,1.4,1.17,2.71,2.06,3.83
				c2.21,2.79,5.62,4.58,9.45,4.58c3.85,0,7.27-1.79,9.48-4.58c1.62-2.06,2.6-4.66,2.6-7.5C277.53-72.26,277.34-73.46,277.01-74.59z
				 M215.08-158.53 M221.64-103.49l9.98-29.22l9.98,29.22H221.64z"/>
		</g>
		<g>
			
				<linearGradient id="SVGID_00000067224714902053293830000008561002352172464275_" gradientUnits="userSpaceOnUse" x1="508.4749" y1="-127.5818" x2="221.9841" y2="-83.7656">
				<stop  offset="0" style="stop-color:#93FB9D"/>
				<stop  offset="1" style="stop-color:#09C7FB"/>
			</linearGradient>
			<path style="fill:url(#SVGID_00000067224714902053293830000008561002352172464275_);" d="M457.09-74.59l-0.04-0.12L428-159.66
				l-0.15-0.44c-1.31-3.96-4.06-7.27-7.6-9.33c-2.52-1.46-5.41-2.31-8.54-2.31c-3.1,0-6.02,0.85-8.52,2.31
				c-3.25,1.9-5.81,4.83-7.25,8.33c-0.17,0.42-29.63,86.47-29.63,86.47v0.02c-0.35,1.12-0.54,2.33-0.54,3.58
				c0,2.83,0.98,5.44,2.6,7.5c2.23,2.79,5.62,4.58,9.48,4.58c3.83,0,7.25-1.79,9.45-4.58c0.9-1.12,1.58-2.39,2.02-3.77
				c0.02-0.06,0.04-0.1,0.06-0.17l4.06-11.89h36.49L434-67.44c0,0.02,0.02,0.04,0.02,0.08c0.46,1.4,1.17,2.71,2.06,3.83
				c2.21,2.79,5.62,4.58,9.45,4.58c3.85,0,7.27-1.79,9.48-4.58c1.62-2.06,2.6-4.66,2.6-7.5C457.61-72.26,457.42-73.46,457.09-74.59z
				 M395.16-158.53 M401.72-103.49l9.98-29.22l9.98,29.22H401.72z"/>
		</g>
		<g>
			
				<linearGradient id="SVGID_00000129171910477923713950000003542698888107162806_" gradientUnits="userSpaceOnUse" x1="506.2953" y1="-141.8327" x2="219.8046" y2="-98.0164">
				<stop  offset="0" style="stop-color:#93FB9D"/>
				<stop  offset="1" style="stop-color:#09C7FB"/>
			</linearGradient>
			<path style="fill:url(#SVGID_00000129171910477923713950000003542698888107162806_);" d="M321.35-59.66
				c-22.54,0-40.88-18.34-40.88-40.88c0-7.84,6.36-14.2,14.2-14.2c7.84,0,14.2,6.36,14.2,14.2c0,6.88,5.6,12.47,12.47,12.47
				s12.47-5.6,12.47-12.47v-57.08c0-7.84,6.36-14.2,14.2-14.2s14.2,6.36,14.2,14.2v57.08C362.23-78,343.89-59.66,321.35-59.66z"/>
		</g>
	</g>
	<g>
		<path class="st0" d="M64.36-115.55l13.64-13.64V-155c0-11.28-9.14-20.42-20.42-20.42h0c-11.28,0-20.42,9.14-20.42,20.42v16.63
			c4.26,1.41,8.18,3.79,11.45,7.06L64.36-115.55z"/>
		
			<linearGradient id="SVGID_00000039124777717093924280000005470969940877681592_" gradientUnits="userSpaceOnUse" x1="59.2278" y1="-125.2573" x2="57.3936" y2="-39.9664">
			<stop  offset="0" style="stop-color:#93FB9D"/>
			<stop  offset="1" style="stop-color:#09C7FB"/>
		</linearGradient>
		<path style="fill:url(#SVGID_00000039124777717093924280000005470969940877681592_);" d="M43.69-53.56l-6.55-6.55v23.68
			C37.15-25.15,46.29-16,57.57-16h0c11.28,0,20.42-9.14,20.42-20.42v-11.94c-4.15,2.2-8.8,3.37-13.64,3.37
			C56.55-45,49.21-48.04,43.69-53.56z"/>
		
			<linearGradient id="SVGID_00000164491879190595433510000011215489868094034307_" gradientUnits="userSpaceOnUse" x1="140.5295" y1="-212.5318" x2="140.5295" y2="-35.8001">
			<stop  offset="0" style="stop-color:#1E9AFE"/>
			<stop  offset="1" style="stop-color:#60DFCD"/>
		</linearGradient>
		<path style="fill:url(#SVGID_00000164491879190595433510000011215489868094034307_);" d="M152.83-162.69
			c4.47,4.48,7.17,10.06,8.13,15.87v-47.04c0-11.28-9.14-20.42-20.42-20.42c-11.28,0-20.42,9.14-20.42,20.42v25.23
			c3.74-1.7,7.83-2.62,12.06-2.62C139.97-171.25,147.31-168.21,152.83-162.69z"/>
		
			<linearGradient id="SVGID_00000149353540761521883770000010677952356132130495_" gradientUnits="userSpaceOnUse" x1="140.5295" y1="-212.5318" x2="140.5295" y2="-35.8001">
			<stop  offset="0" style="stop-color:#1E9AFE"/>
			<stop  offset="1" style="stop-color:#60DFCD"/>
		</linearGradient>
		<path style="fill:url(#SVGID_00000149353540761521883770000010677952356132130495_);" d="M152.83-121.37l-32.72,32.72v34.14
			c0,11.28,9.14,20.42,20.42,20.42c11.28,0,20.42-9.14,20.42-20.42v-82.74C159.99-131.42,157.3-125.84,152.83-121.37z"/>
		<g>
			
				<linearGradient id="SVGID_00000166673948523015072990000009205005614594977421_" gradientUnits="userSpaceOnUse" x1="142.7988" y1="-115.3968" x2="32.2713" y2="-97.3515">
				<stop  offset="0" style="stop-color:#93FB9D"/>
				<stop  offset="1" style="stop-color:#09C7FB"/>
			</linearGradient>
			<path style="fill:url(#SVGID_00000166673948523015072990000009205005614594977421_);" d="M143.19-153.05L143.19-153.05
				c-3.04-3.04-7.03-4.57-11.03-4.57c-3.99,0-7.98,1.52-11.03,4.57l-1.03,1.03l-42.11,42.11L64.36-96.27l-25.4-25.4
				c-0.56-0.56-1.19-1.02-1.81-1.48c-2.74-2.02-5.96-3.09-9.21-3.09c-3.99,0-7.98,1.52-11.03,4.57c-6.09,6.09-6.09,15.96,0,22.05
				l20.24,20.24l5.16,5.16L53.33-63.2c3.04,3.04,7.04,4.57,11.03,4.57c3.99,0,7.98-1.52,11.03-4.57l2.61-2.61l42.11-42.11
				L143.19-131C149.28-137.09,149.28-146.97,143.19-153.05z"/>
		</g>
	</g>
</g>
</svg>
