<svg xmlns:svg="http://www.w3.org/2000/svg" xmlns="http://www.w3.org/2000/svg" version="1.1" width="512" height="512" viewBox="0 0 512 512"><g transform="matrix(1.5838926,0,0,1.5838926,18.416107,18.416107)" fill="none"><path d="m293 153.4c0-10.6-0.9-20.7-2.7-30.5l-140.3 0 0 57.6 80.2 0c-3.4 18.6-13.9 34.4-29.7 45l0 37.4 48.2 0c28.2-25.9 44.4-64.1 44.4-109.5z" fill="#4285f4"/><path d="m150 299c40.2 0 74-13.3 98.6-36.1l-48.1-37.4c-13.3 8.9-30.4 14.2-50.5 14.2-38.8 0-71.7-26.2-83.4-61.4l-49.8 0 0 38.6C41.4 265.6 91.8 299 150 299Z" fill="#34a853"/><path d="m66.6 178.3c-3-8.9-4.7-18.5-4.7-28.3 0-9.8 1.7-19.4 4.7-28.3l0-38.6-49.8 0C6.8 103.2 1 126 1 150c0 24 5.8 46.8 15.9 66.9l49.8-38.6z" fill="#fbbc05"/><path d="m150 60.3c21.9 0 41.5 7.5 57 22.3L249.7 39.8C223.9 15.8 190.2 1 150 1 91.8 1 41.4 34.4 16.9 83.1l49.8 38.6C78.3 86.5 111.2 60.3 150 60.3Z" fill="#ea4335"/><path d="M1 1 299 1 299 299 1 299 1 1Z"/></g></svg>